<svg id="wave" style="transform:rotate(0deg); transition: 0.3s" viewBox="0 0 1440 320" version="1.1" xmlns="http://www.w3.org/2000/svg"><defs><linearGradient id="sw-gradient-0" x1="0" x2="0" y1="1" y2="0"><stop stop-color="rgba(67.708, 43.699, 90.996, 1)" offset="0%"></stop><stop stop-color="rgba(177.992, 0, 238.987, 1)" offset="100%"></stop></linearGradient></defs><path style="transform:translate(0, 0px); opacity:1" fill="url(#sw-gradient-0)" d="M0,96L48,80C96,64,192,32,288,21.3C384,11,480,21,576,64C672,107,768,181,864,224C960,267,1056,277,1152,261.3C1248,245,1344,203,1440,181.3C1536,160,1632,160,1728,144C1824,128,1920,96,2016,117.3C2112,139,2208,213,2304,250.7C2400,288,2496,288,2592,256C2688,224,2784,160,2880,133.3C2976,107,3072,117,3168,128C3264,139,3360,149,3456,165.3C3552,181,3648,203,3744,176C3840,149,3936,75,4032,74.7C4128,75,4224,149,4320,160C4416,171,4512,117,4608,128C4704,139,4800,213,4896,224C4992,235,5088,181,5184,149.3C5280,117,5376,107,5472,128C5568,149,5664,203,5760,234.7C5856,267,5952,277,6048,277.3C6144,277,6240,267,6336,224C6432,181,6528,107,6624,80C6720,53,6816,75,6864,85.3L6912,96L6912,320L6864,320C6816,320,6720,320,6624,320C6528,320,6432,320,6336,320C6240,320,6144,320,6048,320C5952,320,5856,320,5760,320C5664,320,5568,320,5472,320C5376,320,5280,320,5184,320C5088,320,4992,320,4896,320C4800,320,4704,320,4608,320C4512,320,4416,320,4320,320C4224,320,4128,320,4032,320C3936,320,3840,320,3744,320C3648,320,3552,320,3456,320C3360,320,3264,320,3168,320C3072,320,2976,320,2880,320C2784,320,2688,320,2592,320C2496,320,2400,320,2304,320C2208,320,2112,320,2016,320C1920,320,1824,320,1728,320C1632,320,1536,320,1440,320C1344,320,1248,320,1152,320C1056,320,960,320,864,320C768,320,672,320,576,320C480,320,384,320,288,320C192,320,96,320,48,320L0,320Z"></path><defs><linearGradient id="sw-gradient-1" x1="0" x2="0" y1="1" y2="0"><stop stop-color="rgba(82.166, 59.035, 127.424, 1)" offset="0%"></stop><stop stop-color="rgba(195.728, 50.894, 139.462, 1)" offset="100%"></stop></linearGradient></defs><path style="transform:translate(0, 50px); opacity:0.9" fill="url(#sw-gradient-1)" d="M0,224L48,234.7C96,245,192,267,288,250.7C384,235,480,181,576,138.7C672,96,768,64,864,58.7C960,53,1056,75,1152,69.3C1248,64,1344,32,1440,53.3C1536,75,1632,149,1728,186.7C1824,224,1920,224,2016,208C2112,192,2208,160,2304,138.7C2400,117,2496,107,2592,85.3C2688,64,2784,32,2880,21.3C2976,11,3072,21,3168,21.3C3264,21,3360,11,3456,42.7C3552,75,3648,149,3744,181.3C3840,213,3936,203,4032,197.3C4128,192,4224,192,4320,208C4416,224,4512,256,4608,266.7C4704,277,4800,267,4896,245.3C4992,224,5088,192,5184,192C5280,192,5376,224,5472,213.3C5568,203,5664,149,5760,144C5856,139,5952,181,6048,170.7C6144,160,6240,96,6336,101.3C6432,107,6528,181,6624,181.3C6720,181,6816,107,6864,69.3L6912,32L6912,320L6864,320C6816,320,6720,320,6624,320C6528,320,6432,320,6336,320C6240,320,6144,320,6048,320C5952,320,5856,320,5760,320C5664,320,5568,320,5472,320C5376,320,5280,320,5184,320C5088,320,4992,320,4896,320C4800,320,4704,320,4608,320C4512,320,4416,320,4320,320C4224,320,4128,320,4032,320C3936,320,3840,320,3744,320C3648,320,3552,320,3456,320C3360,320,3264,320,3168,320C3072,320,2976,320,2880,320C2784,320,2688,320,2592,320C2496,320,2400,320,2304,320C2208,320,2112,320,2016,320C1920,320,1824,320,1728,320C1632,320,1536,320,1440,320C1344,320,1248,320,1152,320C1056,320,960,320,864,320C768,320,672,320,576,320C480,320,384,320,288,320C192,320,96,320,48,320L0,320Z"></path></svg>